# xmcd CD database file
#
# Track frame offsets:
#	150
#	13314
#	25605
#	40809
#	55348
#	64900
#	81400
#	94049
#	105419
#	135385
#	146736
#	159525
#	168124
#	178511
#	192900
#	203504
#	215896
#	227011
#
# Disc length: 3142 seconds
#
# Revision: 0
# Processed by: cddbd v1.5PL3 Copyright (c) Steve Scherf et al.
# Submitted via: CDex 1.51
#
DISCID=f30c4412
DTITLE=The starry crown quartet - On the sunny side of the street
DYEAR=1996
DGENRE=Jazz
TTITLE0=On the sunny side of the street
TTITLE1=God almighty gonna cut you down
TTITLE2=Black satin suit
TTITLE3=Joy to the world
TTITLE4=Mack the knife
TTITLE5=Go down moses
TTITLE6=Hallelujah i just love her so
TTITLE7=Shadrack
TTITLE8=Old man river
TTITLE9=Straighten up and fly right
TTITLE10=When the saints go marching in
TTITLE11=Shine on harvest moon
TTITLE12=Swing down chariot
TTITLE13=End of my journey
TTITLE14=Joshua fit the battle of jericho
TTITLE15=I want two wings
TTITLE16=Didn't it rain
TTITLE17=Good news
EXTD=YEAR: 1996
EXTT0=
EXTT1=
EXTT2=
EXTT3=
EXTT4=
EXTT5=
EXTT6=
EXTT7=
EXTT8=
EXTT9=
EXTT10=
EXTT11=
EXTT12=
EXTT13=
EXTT14=
EXTT15=
EXTT16=
EXTT17=
PLAYORDER=
